#tb 0: 1/50
#media_type 0: video
#codec_id 0: rawvideo
#dimensions 0: 320x240
#sar 0: 1/1
0,          0,          0,        1,   307200, 0xb49cf016
0,          1,          1,        1,   307200, 0xbccf696d
0,          2,          2,        1,   307200, 0x709c8dd1
0,          3,          3,        1,   307200, 0xb948d907
0,          4,          4,        1,   307200, 0x850f849a
0,          5,          5,        1,   307200, 0xaf71e7fc
0,          6,          6,        1,   307200, 0x0a1ba486
0,          7,          7,        1,   307200, 0x0601f62a
0,          8,          8,        1,   307200, 0x2c6d3a59
0,          9,          9,        1,   307200, 0xed03597b
0,         10,         10,        1,   307200, 0x9f84df5d
0,         11,         11,        1,   307200, 0x9fbe8c84
0,         12,         12,        1,   307200, 0x8f7bc394
0,         13,         13,        1,   307200, 0x5113c787
0,         14,         14,        1,   307200, 0x41e8002f
0,         15,         15,        1,   307200, 0xab2162fc
0,         16,         16,        1,   307200, 0xbf8f847c
0,         17,         17,        1,   307200, 0x832d9ef7
0,         18,         18,        1,   307200, 0xd2f5e043
0,         19,         19,        1,   307200, 0xceeaddb8
0,         20,         20,        1,   307200, 0xf2b12fe5
0,         21,         21,        1,   307200, 0xf3477e11
0,         22,         22,        1,   307200, 0xdf387773
0,         23,         23,        1,   307200, 0x273be7e2
0,         24,         24,        1,   307200, 0x68cd0360
0,         25,         25,        1,   307200, 0x4693ab03
0,         26,         26,        1,   307200, 0xe2baef73
0,         27,         27,        1,   307200, 0x0c9fa60a
0,         28,         28,        1,   307200, 0x6e4ddbc5
0,         29,         29,        1,   307200, 0xd1b2353c
0,         30,         30,        1,   307200, 0x8a512668
0,         31,         31,        1,   307200, 0x7224b439
0,         32,         32,        1,   307200, 0x7a9243e2
0,         33,         33,        1,   307200, 0x9a7e4553
0,         34,         34,        1,   307200, 0x4d795626
0,         35,         35,        1,   307200, 0x4e24d659
0,         36,         36,        1,   307200, 0xa230b54b
0,         37,         37,        1,   307200, 0x14598ea5
0,         38,         38,        1,   307200, 0x21619cf3
0,         39,         39,        1,   307200, 0x5220a167
0,         40,         40,        1,   307200, 0xb6505ff0
0,         41,         41,        1,   307200, 0x0a482a3d
0,         42,         42,        1,   307200, 0x6bdce40c
0,         43,         43,        1,   307200, 0x3c6074f3
0,         44,         44,        1,   307200, 0x369c71c8
0,         45,         45,        1,   307200, 0x4fda2634
0,         46,         46,        1,   307200, 0x4df2d619
0,         47,         47,        1,   307200, 0x21205aab
0,         48,         48,        1,   307200, 0xe00f48c2
0,         49,         49,        1,   307200, 0xe3b11798
